<?xml version="1.0" standalone="no"?>
<!DOCTYPE svg PUBLIC "-//W3C//DTD SVG 20010904//EN"
 "http://www.w3.org/TR/2001/REC-SVG-20010904/DTD/svg10.dtd">
<svg version="1.0" xmlns="http://www.w3.org/2000/svg"
 width="260.000000pt" height="260.000000pt" viewBox="0 0 260.000000 260.000000"
 preserveAspectRatio="xMidYMid meet">
<metadata>
Created by potrace 1.14, written by Peter Selinger 2001-2017
</metadata>
<g transform="translate(0.000000,260.000000) scale(0.100000,-0.100000)"
fill="#000000" stroke="none">
<path d="M542 2505 c-62 -14 -97 -38 -129 -85 -38 -55 -23 -132 38 -193 21
-22 39 -44 39 -49 0 -5 -13 -26 -29 -46 -39 -48 -94 -162 -115 -234 -60 -210
-25 -419 104 -618 31 -47 153 -171 204 -207 29 -20 29 -21 13 -46 -74 -113
-98 -187 -103 -315 -3 -84 0 -112 16 -154 23 -60 67 -109 120 -133 31 -14 39
-24 45 -52 8 -44 90 -206 130 -256 38 -47 94 -87 138 -97 65 -14 167 42 204
114 l15 30 22 -29 c115 -159 247 -156 361 9 34 50 40 54 62 45 38 -14 163 -11
224 6 107 31 200 85 275 160 83 85 147 191 155 260 1 6 5 20 10 32 4 12 11 57
14 100 17 226 37 281 114 320 88 44 119 100 88 159 -26 51 -54 69 -106 68
-106 -1 -234 -110 -276 -234 -1 -3 -4 -12 -7 -20 -14 -36 -27 -111 -33 -190
-10 -129 -22 -187 -52 -242 -26 -48 -117 -148 -135 -148 -5 0 -25 -10 -46 -23
-36 -22 -97 -44 -137 -49 -33 -4 -30 15 7 37 56 32 81 57 108 105 23 41 25 56
25 160 -1 135 -16 195 -76 295 l-41 68 33 25 c44 33 157 147 189 190 44 59
102 176 117 237 57 226 17 444 -114 629 l-35 48 33 32 c46 44 72 108 65 157
-7 53 -40 93 -99 119 -107 47 -211 23 -271 -61 l-15 -22 -58 26 c-46 20 -138
50 -150 49 -2 0 -25 6 -52 13 -32 8 -100 12 -193 10 -190 -3 -238 -11 -382
-68 -65 -26 -79 -28 -86 -16 -43 77 -125 107 -228 84z"/>
</g>
</svg>
